PathFileType	4	(X/Y/Z)	/Users/itak/Documents/Research/Walk-IL/dataset/trc/00319_00011.trc
DataRate	CameraRate	NumFrames	NumMarkers	Units	OrigDataRate	OrigDataStartFrame	OrigNumFrames
100.000000	100.000000	4	57	mm	100.000000	364	583
Frame#	Time	RPSI			LPSI			L3			STRN			T10			C7			CLAV			RBAK			LBAK			LSHO			LUPA			LAEL			LAOL			LWPS			LFRA			LHPS			RSHO			RUPA			RAEL			RAOL			RWTS			RWPS			RFRA			RIFD			RHTS			RHPS			RBHD			LFHD			RFHD			LBHD			LHIP			RASI			LASI			LKNE			LTHI			LANK			LTIP			LTOE			LMT1			LMT5			LHEE			RKNE			RTHI			RANK			RTIP			RTOE			RMT5			RHEE			RHIP			RMT1			LWTS			LIFD			LHTS			*53			*54			*55			*56			
		X1	Y1	Z1	X2	Y2	Z2	X3	Y3	Z3	X4	Y4	Z4	X5	Y5	Z5	X6	Y6	Z6	X7	Y7	Z7	X8	Y8	Z8	X9	Y9	Z9	X10	Y10	Z10	X11	Y11	Z11	X12	Y12	Z12	X13	Y13	Z13	X14	Y14	Z14	X15	Y15	Z15	X16	Y16	Z16	X17	Y17	Z17	X18	Y18	Z18	X19	Y19	Z19	X20	Y20	Z20	X21	Y21	Z21	X22	Y22	Z22	X23	Y23	Z23	X24	Y24	Z24	X25	Y25	Z25	X26	Y26	Z26	X27	Y27	Z27	X28	Y28	Z28	X29	Y29	Z29	X30	Y30	Z30	X31	Y31	Z31	X32	Y32	Z32	X33	Y33	Z33	X34	Y34	Z34	X35	Y35	Z35	X36	Y36	Z36	X37	Y37	Z37	X38	Y38	Z38	X39	Y39	Z39	X40	Y40	Z40	X41	Y41	Z41	X42	Y42	Z42	X43	Y43	Z43	X44	Y44	Z44	X45	Y45	Z45	X46	Y46	Z46	X47	Y47	Z47	X48	Y48	Z48	X49	Y49	Z49	X50	Y50	Z50	X51	Y51	Z51	X52	Y52	Z52	X53	Y53	Z53	X54	Y54	Z54	X55	Y55	Z55	X56	Y56	Z56	X57	Y57	Z57	

365	3.64	-469.3078308105469	962.6560668945312	97.94559478759766	-478.1112976074219	960.4553833007812	-32.28903961181641	-472.4580993652344	1023.094848632812	33.53193283081055	-246.7443542480469	1199.116943359375	12.64425563812256	-488.4448852539062	1143.085205078125	21.11186599731445	-446.5238647460938	1391.625610351562	1.498260259628296	-291.1036071777344	1322.864868164062	8.992961883544922	-495.825927734375	1254.21728515625	70.32575988769531	-456.2846374511719	1353.09033203125	-99.66436004638672	-368.97900390625	1363.655029296875	-151.8056335449219	-383.0260314941406	1246.195556640625	-222.43798828125	-349.7197265625	1044.563842773438	-238.0959014892578	-420.4771728515625	1025.5576171875	-192.4338989257812	-261.5041198730469	798.3173828125	-240.6914367675781	-323.0938720703125	941.5027465820312	-244.2942047119141	-256.9414367675781	727.545654296875	-234.7929382324219	-387.2997436523438	1374.732055664062	164.2006072998047	-402.2544250488281	1311.605224609375	228.6725921630859	-422.3710327148438	1045.532348632812	269.2349853515625	-457.2643737792969	1040.49462890625	180.9388885498047	-331.574951171875	807.75341796875	235.7130279541016	-374.0772399902344	797.7681274414062	300.8763732910156	-404.63916015625	976.6472778320312	281.8472900390625	-339.9219970703125	633.805419921875	256.0671997070312	-319.0179748535156	703.2837524414062	254.7509613037109	-369.7040710449219	713.5371704101562	299.6635131835938	-422.2607421875	1581.53173828125	77.98370361328125	-258.6651000976562	1613.757202148438	-47.4271240234375	-265.7868957519531	1617.160034179688	54.07207870483398	-439.2366027832031	1567.371948242188	-64.82814788818359	-403.8494873046875	898.3132934570312	-142.7574462890625	-280.2915954589844	941.1368408203125	145.1805114746094	-276.1893920898438	923.5996704101562	-93.59710693359375	-362.7548828125	441.7860107421875	-127.427116394043	-358.4304809570312	576.6350708007812	-135.7075347900391	-727.2360229492188	214.2943725585938	-109.6083374023438	-543.9068603515625	307.5353393554688	-129.8987579345703	-656.51904296875	34.25584030151367	-31.51989936828613	-690.7864990234375	94.02178192138672	2.566211223602295	-690.7313232421875	92.77549743652344	-111.9252090454102	-742.693603515625	249.1333923339844	-44.59761047363281	-231.4468841552734	461.1788024902344	147.9768524169922	-264.4789123535156	717.2642211914062	196.0194244384766	-281.7198181152344	48.92698287963867	100.2838287353516	-214.7859802246094	339.3259582519531	132.3131866455078	-85.947998046875	45.08404922485352	54.82564163208008	-182.98779296875	36.24293899536133	120.0990676879883	-329.7008361816406	51.47222137451172	49.53782272338867	-376.931640625	914.490478515625	202.1277923583984	-140.1142425537109	39.47413635253906	10.68780326843262	-235.1968383789062	813.1829223632812	-178.6910705566406	-210.9581909179688	653.2101440429688	-173.2840881347656	-211.8642425537109	736.6275634765625	-190.7657470703125	nan	nan	nan	nan	nan	nan	nan	nan	nan	nan	nan	nan	
366	3.65	-459.3682250976562	963.450439453125	98.88055419921875	-468.6063537597656	960.6383056640625	-31.44575691223145	-462.9909973144531	1024.562255859375	35.00728225708008	-236.8067626953125	1200.068481445312	12.95716285705566	-477.9366760253906	1144.442016601562	23.43620872497559	-436.2704162597656	1393.030395507812	2.975083589553833	-280.9407958984375	1323.919555664062	9.404350280761719	-485.2142944335938	1255.690307617188	72.61524963378906	-446.6520690917969	1354.355102539062	-98.00185394287109	-359.6696472167969	1364.6083984375	-150.9783630371094	-375.0873413085938	1246.918823242188	-221.1011657714844	-344.9275207519531	1044.826171875	-236.4114685058594	-415.4110717773438	1027.103881835938	-190.1172485351562	-264.3595581054688	795.7244262695312	-240.9147033691406	-320.9964599609375	941.1232299804688	-242.98583984375	-263.055908203125	724.6728515625	-235.4777221679688	-375.7402038574219	1376.234375	165.3054656982422	-389.8107604980469	1313.156005859375	230.1278228759766	-405.6163330078125	1047.000732421875	273.002197265625	-442.789794921875	1040.990234375	185.5078277587891	-310.9904479980469	810.99560546875	237.0810852050781	-351.7817077636719	799.8847045898438	303.0275573730469	-386.4828186035156	978.2197265625	285.1546936035156	-313.8439025878906	636.833740234375	257.0900573730469	-295.0183715820312	707.1136474609375	255.6599426269531	-345.0136108398438	715.860107421875	301.6358337402344	-411.9909973144531	1582.598022460938	78.96254730224609	-248.7351531982422	1615.161499023438	-46.78867721557617	-255.6183166503906	1618.609741210938	54.70900726318359	-429.2035217285156	1568.373657226562	-63.83087921142578	-393.8601379394531	898.828857421875	-141.7777099609375	-270.2560424804688	941.9562377929688	146.2026519775391	-266.4903564453125	924.9228515625	-92.54142761230469	-340.4883117675781	443.0736389160156	-128.1950073242188	-339.5717468261719	577.3964233398438	-135.8250579833984	-707.5074462890625	220.5143280029297	-110.1922225952148	-522.7650146484375	310.7190856933594	-130.566162109375	-639.2341918945312	36.47906494140625	-32.94097137451172	-672.8680419921875	98.90737152099609	1.08008599281311	-672.8253173828125	98.30484008789062	-113.1487655639648	-722.5372924804688	255.2028045654297	-45.02057647705078	-226.8527526855469	460.6215209960938	148.5924377441406	-256.784912109375	717.048828125	196.8278503417969	-281.6408996582031	48.87900543212891	100.2498397827148	-211.6652374267578	338.6308288574219	132.9279327392578	-85.88829040527344	44.53129577636719	54.71065521240234	-182.9543304443359	36.20553207397461	120.1422271728516	-329.615966796875	51.90069198608398	49.70236206054688	-367.0052490234375	915.2642822265625	203.0433654785156	-140.0220489501953	39.31521606445312	10.64411354064941	-237.3474426269531	808.9053955078125	-178.8776550292969	-220.0021820068359	647.5769653320312	-174.3762664794922	-217.5118713378906	731.1875	-191.4175567626953	nan	nan	nan	nan	nan	nan	nan	nan	nan	nan	nan	nan	
367	3.66	-449.5860290527344	964.2612915039062	99.75791168212891	-459.2079162597656	960.9208374023438	-30.65983200073242	-453.8329162597656	1026.034301757812	36.31927871704102	-227.0517578125	1200.931274414062	13.19104385375977	-467.6524963378906	1145.734619140625	25.57999992370605	-426.166748046875	1394.364624023438	4.360199928283691	-270.9290771484375	1324.899047851562	9.74763298034668	-474.7610168457031	1257.091430664062	74.78601837158203	-437.1630249023438	1355.562866210938	-96.42849731445312	-350.5012817382812	1365.494262695312	-150.2406005859375	-367.3287963867188	1247.580322265625	-219.8198547363281	-340.4347229003906	1045.069580078125	-234.7860107421875	-410.4797668457031	1028.616333007812	-187.7512054443359	-267.4194946289062	793.51806640625	-241.1926879882812	-319.1541137695312	940.8682250976562	-241.7322692871094	-269.1994018554688	722.3361206054688	-236.2230072021484	-364.3700866699219	1377.632080078125	166.3216857910156	-377.5316162109375	1314.612426757812	231.4900054931641	-388.7255249023438	1048.470703125	276.7783508300781	-428.2865905761719	1041.371704101562	190.22607421875	-290.441650390625	814.2888793945312	238.3489379882812	-329.2374267578125	802.2069702148438	305.1268310546875	-368.1486511230469	979.8513793945312	288.4758911132812	-287.7002868652344	640.142578125	258.1415100097656	-270.9007568359375	711.1637573242188	256.4094848632812	-320.1189575195312	718.4346313476562	303.60009765625	-401.7501525878906	1583.615478515625	79.91225433349609	-238.8210754394531	1616.455322265625	-46.18489074707031	-245.4886627197266	1619.929931640625	55.29893493652344	-419.2359008789062	1569.343139648438	-62.86865997314453	-383.9129638671875	899.4364013671875	-140.8346252441406	-260.439697265625	942.7234497070312	147.2243957519531	-256.888427734375	926.2588500976562	-91.51002502441406	-318.3025207519531	444.7803955078125	-128.9495391845703	-320.802490234375	578.4827270507812	-136.0077819824219	-687.2906494140625	225.6502838134766	-110.5209426879883	-501.3841247558594	313.8338623046875	-131.1536102294922	-619.4465942382812	39.34698867797852	-34.63864517211914	-652.9434204101562	103.0517654418945	-0.3515412211418152	-653.0701293945312	103.3288497924805	-114.410026550293	-702.0447387695312	259.9832763671875	-45.12387084960938	-222.5923461914062	460.0807495117188	149.1966705322266	-249.4718170166016	716.7754516601562	197.5518798828125	-281.5872802734375	48.83346557617188	100.2173080444336	-208.7829742431641	337.9482421875	133.5685424804688	-85.82826232910156	44.06461334228516	54.62999725341797	-182.9355163574219	36.16006088256836	120.1955795288086	-329.5570068359375	52.3276252746582	49.86182022094727	-357.37353515625	915.9796752929688	203.8901672363281	-139.9480438232422	39.19866180419922	10.61934089660645	-239.6720123291016	805.0543823242188	-179.1765441894531	-228.6281585693359	642.6534423828125	-175.6965026855469	-223.2496490478516	726.3946533203125	-192.2373657226562	nan	nan	nan	nan	nan	nan	nan	nan	nan	nan	nan	nan	
368	3.67	-439.9694519042969	965.1007080078125	100.5464248657227	-449.8826599121094	961.3412475585938	-29.95255470275879	-444.8964233398438	1027.478515625	37.43936157226562	-217.4433441162109	1201.754638671875	13.35260009765625	-457.5932006835938	1146.963500976562	27.52635765075684	-416.2127075195312	1395.62158203125	5.651732921600342	-261.0736083984375	1325.8203125	10.03938770294189	-464.4646606445312	1258.413818359375	76.82000732421875	-427.8111877441406	1356.71630859375	-94.94484710693359	-341.4678039550781	1366.335205078125	-149.5793304443359	-359.7455749511719	1248.223022460938	-218.6028289794922	-336.2388916015625	1045.34716796875	-233.1998291015625	-405.6923522949219	1030.142578125	-185.3110198974609	-270.6755676269531	791.719482421875	-241.5022277832031	-317.5735473632812	940.7644653320312	-240.5262603759766	-275.3262939453125	720.5449829101562	-237.0060882568359	-353.2149047851562	1378.93310546875	167.2509613037109	-365.4343566894531	1315.985961914062	232.7581481933594	-371.718017578125	1049.970092773438	280.5001525878906	-413.7147521972656	1041.660400390625	195.0444030761719	-269.9399108886719	817.64501953125	239.5182342529297	-306.4793701171875	804.7850952148438	307.1505126953125	-349.6616516113281	981.5731201171875	291.7612915039062	-261.6117248535156	643.7455444335938	259.2420349121094	-246.7865905761719	715.4140625	257.0321960449219	-295.0941162109375	721.2941284179688	305.5582275390625	-391.5357055664062	1584.593505859375	80.82952117919922	-228.9200744628906	1617.63330078125	-45.61965942382812	-235.3959045410156	1621.11767578125	55.84159088134766	-409.3358154296875	1570.288208007812	-61.94086074829102	-373.9551696777344	900.1842041015625	-139.9327697753906	-250.8621978759766	943.461181640625	148.2749176025391	-247.3112335205078	927.6802978515625	-90.48078918457031	-296.2697448730469	446.8743896484375	-129.6767272949219	-302.2372436523438	579.9050903320312	-136.2918548583984	-666.5953369140625	229.6522521972656	-110.6494750976562	-479.8025207519531	316.8248901367188	-131.6662445068359	-597.375	42.51616668701172	-36.54584121704102	-631.2303466796875	106.3317260742188	-1.719223380088806	-631.6600952148438	107.678108215332	-115.6832733154297	-681.2127075195312	263.4591979980469	-44.97454833984375	-218.5846252441406	459.5671997070312	149.7760009765625	-242.4602661132812	716.4832763671875	198.1889495849609	-281.5502624511719	48.80462646484375	100.1936569213867	-206.0617218017578	337.2887268066406	134.1767730712891	-85.76099395751953	43.67213821411133	54.57157897949219	-182.9247436523438	36.11081314086914	120.2507858276367	-329.5174255371094	52.73349380493164	49.99474716186523	-348.0509948730469	916.6572265625	204.6568603515625	-139.8896179199219	39.11325073242188	10.59889221191406	-242.1325836181641	801.654052734375	-179.5773315429688	-236.7577056884766	638.4172973632812	-177.2730255126953	-229.0112457275391	722.2838745117188	-193.2203979492188	nan	nan	nan	nan	nan	nan	nan	nan	nan	nan	nan	nan	
